<svg xmlns="http://www.w3.org/2000/svg" xmlns:xlink="http://www.w3.org/1999/xlink" width="1024" height="1024"><defs><radialGradient xlink:href="#a" id="b" cx="512" cy="512" r="513" fx="512" fy="512" gradientUnits="userSpaceOnUse"/><linearGradient id="a"><stop offset="0" style="stop-color:#36a4ff;stop-opacity:1"/><stop offset="1" style="stop-color:#0083ff;stop-opacity:1"/></linearGradient></defs><g style="display:inline"><path d="M0 0h1024v1024H0Z" style="fill:url(#b);stroke:none;stroke-width:2;stroke-linecap:round"/><path d="M388.132 736.987c-7.668-1.62-21.26-9.204-27.263-15.21-3.527-3.529-11.21-12.856-13.407-16.277-16.076-25.027-21.58-55.682-16.064-89.462.94-5.754 2.076-10.929 2.525-11.5.449-.57 1.382-2.838 2.073-5.038 1.7-5.412 6.15-14.922 7.174-15.333.457-.184.83-.937.83-1.674 0-.737 1.125-2.677 2.5-4.31 1.375-1.635 2.5-3.294 2.5-3.687 0-2.656 20.944-19.486 24.27-19.502.676-.003 2.58-.782 4.23-1.73 4.528-2.6 28.245-2.523 34.527.112 6.65 2.79 14.337 6.835 15.473 8.143.55.633 3.157 2.87 5.792 4.971 6.145 4.898 15.744 17.637 19.8 26.275 1.739 3.704 3.637 7.635 4.217 8.735 1.086 2.06 3.781 10.925 6.198 20.388 3.52 13.78 2.685 46.69-1.54 60.612-2.571 8.477-6.727 18.425-8.597 20.579-.753.868-1.37 2.136-1.37 2.817 0 1.143-5.933 9.075-11.346 15.17-3.458 3.893-14.479 11.312-20.654 13.904-4.37 1.834-7.762 2.374-16.5 2.625-6.05.174-12.966-.1-15.368-.608zM615 715.331c-.825-.28-2.918-1.145-4.651-1.92-1.733-.776-3.533-1.414-4-1.417-1.135-.008-12.432-7.83-16.005-11.081-12.477-11.352-21.866-28.68-26.506-48.913-4.471-19.5-4.596-36.339-.418-56.5 4.243-20.476 16.844-42 29.566-50.5a128.258 128.258 0 0 0 4.38-3.088c1.174-.873 4.834-2.893 8.134-4.488 5.742-2.776 6.604-2.901 20.042-2.912l14.041-.012 8.791 4.436c8.607 4.344 14.427 8.65 19.562 14.472a704.18 704.18 0 0 0 4.814 5.396c1.238 1.368 2.25 3.097 2.25 3.842 0 .745.379 1.354.842 1.354 1.571 0 10.155 18.454 13.098 28.16 5.8 19.13 5.994 50.233.428 68.84-6.851 22.907-20.661 41.976-35.655 49.234-11.903 5.762-11.938 5.77-24.864 5.687-6.792-.043-13.024-.309-13.849-.59Z" style="fill:#fee800"/></g><path d="M321.334 1022.573c-.212-.343 5.084-29.276 6.204-36.31 1.12-7.035 3.23-21.633 4.689-32.44l2.653-19.65-7.685-24.826c-4.227-13.654-10.308-32.12-13.513-41.036-6.129-17.05-16.218-38.88-19.475-42.136l-1.923-1.924-29.342-.027c-44.567-.042-60.739-1.431-82.546-7.094-21.983-5.708-31.993-10.1-35.365-15.515-1.927-3.094-1.646-6.856.678-9.065.789-.75 9.069-5.351 18.4-10.224 9.33-4.872 17.992-9.59 19.248-10.485 1.256-.894 2.693-1.626 3.194-1.626 1.378 0 1.09-1.415-.404-1.989-.723-.277-5.119-.506-9.768-.507-17.228-.006-39.174-3.068-47.469-6.624-4.49-1.924-6.222-4.755-4.809-7.857.523-1.147 3.534-3.509 6.992-5.484 14.908-8.516 18.016-11.181 54.652-46.87l13.662-13.308.35-4.214c.192-2.317-.794-12.435-2.192-22.483-1.398-10.049-3.12-22.947-3.826-28.662-.707-5.715-2.431-15.442-3.832-21.614-4.692-20.683-6.647-34.409-7.45-52.334-.42-9.351-.968-18.516-1.218-20.367-.25-1.85-1.592-17.716-2.983-35.255-2.624-33.111-2.705-38.936-.91-65.374a3028.9 3028.9 0 0 0 1.84-29.927c1.514-27.127 2.924-40.208 12.076-112.02l4.848-38.033c3.754-19.024.086-46.711 18.785-48.293 15.612-1.199 26.822 24.393 38.31 48.293l2.539 5.611c5.703 12.61 19.348 47.002 26.634 67.129 4.38 12.1 21.368 66.48 22.009 70.454.426 2.64.823 3.118 2.589 3.118 1.146 0 7.609-2.989 14.36-6.641 19.396-10.493 44.987-22.896 56.407-27.34 13.844-5.385 34.008-10.959 50.158-13.864 7.19-1.293 13.245-2.18 13.455-1.97.21.21.788 25.252 1.286 55.649.498 30.397 1.126 60.675 1.396 67.283.446 10.92.605 11.868 1.743 10.392 3.879-5.033 14.769-32.078 22.078-54.829 3.572-11.12 6.766-26.39 8.434-40.319l2.986-24.94c1.164-9.72 2.148-14.961 2.966-15.794 1.04-1.06 6.447-1.29 36.049-1.525l34.825-.278.428 3.603c.235 1.982.823 8.158 1.307 13.725.483 5.567 2.201 19.22 3.817 30.343 1.616 11.122 3.863 27.703 4.995 36.848 5.088 41.124 9.97 67.668 12.056 65.542.931-.948 2.872-15.377 4.903-36.446 2.029-21.05 10.888-86.629 14.639-108.358l.48-2.781 5.974.569c9.911.944 34.108 6.137 50.75 10.89 8.623 2.464 16.064 4.24 16.536 3.95 1.197-.741 12.424-24.23 20.6-43.1 9.665-22.307 21.61-49.291 26.037-58.816l3.768-8.105c16.693-39.21 49.275-104.435 66.883-99.98 17.624-2.032 13.62 63.152 12.113 99.98l.416 2.702c.228 1.486.633 17.104.9 34.707.266 17.603.867 43.79 1.336 58.192.47 14.403 1.156 39.28 1.525 55.283l.671 29.096 3.385 11.223c5.415 17.955 8.22 34.418 11.116 65.258 1.575 16.77 1.332 56.042-.435 70.174-1.324 10.59-1.32 11.231.067 12.774 1.64 1.823 22.444 16.823 33.883 24.43 19.013 12.643 35.373 20.197 63.18 29.171 11.43 3.69 22.93 7.31 25.552 8.047 3.849 1.082 4.87 1.739 5.288 3.405 1.089 4.338-4.653 9.032-19.59 16.015-9.403 4.395-29.828 11.31-37.436 12.675-2.972.533-6.246 1.124-7.274 1.314-1.03.19-1.87.656-1.87 1.038 0 1.145 24.298 8.354 38.24 11.344 9.796 2.102 10.807 2.646 10.807 5.817 0 4.378-3.623 7.353-16.372 13.441-13.035 6.226-26.523 11.676-59.278 23.956-12.574 4.713-25.667 9.677-29.096 11.03-7.99 3.154-30.272 8.714-45.643 11.389-6.586 1.146-12.07 2.182-12.186 2.302-.454.467 1.282 150.846 1.781 154.397.292 2.074 4.093 15.368 8.447 29.542 4.354 14.174 9.939 34.317 12.713 44.683l5.98 22.353c-163.137 3.494-331.415.555-473.178-.478zm99.963-287.87c9.498-4.491 17.792-10.798 23.505-17.874 9.142-11.323 16.435-27.06 19.178-41.384 1.671-8.727 2.438-36.877 1.245-45.718-4.344-32.185-23.389-62.364-46.495-73.679-7.03-3.442-8.675-3.9-16.845-4.693-16.689-1.62-26.97.792-38.184 8.956-10.759 7.834-16.37 14.346-22.201 25.768-7.52 14.727-10.218 24.225-11.928 41.981-4.685 48.648 17.939 94.28 53.418 107.745 4.86 1.845 6.22 1.972 18.952 1.776 13.512-.208 13.8-.251 19.355-2.878zm230.449-22.999c7.223-3.53 9.282-5.05 15.795-11.67 18.85-19.159 27.228-44.453 25.903-78.209-.608-15.5-2.508-26.057-6.592-36.632-9.73-25.193-20.188-37.539-40.407-47.7l-6.97-3.503-14.644.28-14.644.282-6.235 3.193c-14.333 7.343-24.326 17.664-32.112 33.167-8.232 16.39-11.451 31.216-11.417 52.576.019 12.038.349 15.69 2.228 24.65 4.474 21.335 12.099 37.125 23.758 49.204 6.956 7.206 14.408 12.53 22.45 16.041l6.316 2.757 14.132-.189 14.133-.189z" style="display:inline;fill:#fff;stroke:#fff;stroke-width:2;stroke-linecap:round;stroke-dasharray:none;stroke-opacity:1"/></svg>