<?xml version="1.0" encoding="UTF-8" standalone="no"?>
<!-- Created with Inkscape (http://www.inkscape.org/) -->

<svg
   version="1.1"
   id="svg2"
   width="1024"
   height="1024"
   viewBox="0 0 1024 1024"
   sodipodi:docname="logo.svg"
   inkscape:version="1.2.2 (b0a8486541, 2022-12-01)"
   inkscape:export-filename="logo_.png"
   inkscape:export-xdpi="96"
   inkscape:export-ydpi="96"
   xmlns:inkscape="http://www.inkscape.org/namespaces/inkscape"
   xmlns:sodipodi="http://sodipodi.sourceforge.net/DTD/sodipodi-0.dtd"
   xmlns:xlink="http://www.w3.org/1999/xlink"
   xmlns="http://www.w3.org/2000/svg"
   xmlns:svg="http://www.w3.org/2000/svg">
  <defs
     id="defs6">
    <linearGradient
       inkscape:collect="always"
       id="linearGradient13530">
      <stop
         style="stop-color:#36a4ff;stop-opacity:1;"
         offset="0"
         id="stop13526" />
      <stop
         style="stop-color:#0083ff;stop-opacity:1;"
         offset="1"
         id="stop13528" />
    </linearGradient>
    <radialGradient
       inkscape:collect="always"
       xlink:href="#linearGradient13530"
       id="radialGradient13532"
       cx="512"
       cy="512"
       fx="512"
       fy="512"
       r="513"
       gradientUnits="userSpaceOnUse" />
  </defs>
  <sodipodi:namedview
     id="namedview4"
     pagecolor="#505050"
     bordercolor="#ffffff"
     borderopacity="1"
     inkscape:showpageshadow="0"
     inkscape:pageopacity="0"
     inkscape:pagecheckerboard="1"
     inkscape:deskcolor="#505050"
     showgrid="false"
     inkscape:zoom="0.42529297"
     inkscape:cx="360.92767"
     inkscape:cy="850.0023"
     inkscape:window-width="1912"
     inkscape:window-height="1036"
     inkscape:window-x="4"
     inkscape:window-y="40"
     inkscape:window-maximized="1"
     inkscape:current-layer="g8" />
  <g
     inkscape:groupmode="layer"
     inkscape:label="Image"
     id="g8">
    <g
       id="g1893"
       style="display:inline">
      <path
         id="rect13032"
         style="fill:url(#radialGradient13532);stroke:none;stroke-width:2;stroke-linecap:round"
         d="M 0,0 H 1024 V 1024 H 0 Z" />
      <path
         style="fill:#fee800"
         d="m 388.13174,736.98737 c -7.66744,-1.62091 -21.25917,-9.20401 -27.26286,-15.2105 -3.52682,-3.52848 -11.20973,-12.85581 -13.40723,-16.27687 -16.07562,-25.02651 -21.58004,-55.68169 -16.06366,-89.46165 0.93963,-5.7539 2.07583,-10.9289 2.52489,-11.5 0.44906,-0.57109 1.38194,-2.83835 2.07306,-5.03835 1.70018,-5.41204 6.14961,-14.92184 7.17414,-15.33333 0.45645,-0.18334 0.82992,-0.93631 0.82992,-1.67328 0,-0.73697 1.125,-2.67693 2.5,-4.31102 1.375,-1.6341 2.5,-3.293 2.5,-3.68644 0,-2.6557 20.94381,-19.48544 24.26942,-19.50209 0.67682,-0.003 2.58058,-0.78143 4.23058,-1.72898 4.52831,-2.60047 28.24529,-2.52399 34.52746,0.11135 6.64942,2.78941 14.33697,6.83497 15.47254,8.1424 0.55,0.63324 3.15657,2.87044 5.79238,4.97156 6.1443,4.89788 15.74405,17.63716 19.79941,26.27464 1.73922,3.70436 3.63675,7.63519 4.21673,8.73519 1.08658,2.06079 3.78184,10.92533 6.19887,20.38764 3.5201,13.78069 2.68413,46.69013 -1.53968,60.61236 -2.57179,8.47696 -6.72779,18.42478 -8.59739,20.57874 -0.75368,0.86831 -1.37032,2.13616 -1.37032,2.81745 0,1.14277 -5.93283,9.07474 -11.34631,15.16957 -3.45817,3.89343 -14.47864,11.31273 -20.65369,13.90466 -4.36917,1.83393 -7.76166,2.37354 -16.5,2.6245 -6.05,0.17375 -12.96572,-0.0996 -15.36826,-0.60755 z M 615,715.33142 c -0.825,-0.28088 -2.91801,-1.14535 -4.65113,-1.92105 -1.73312,-0.7757 -3.53312,-1.41311 -4,-1.41646 -1.1345,-0.008 -12.43178,-7.82984 -16.00525,-11.08127 -12.4762,-11.35187 -21.86553,-28.6789 -26.50521,-48.91264 -4.47138,-19.49975 -4.59615,-36.33856 -0.41864,-56.5 4.24276,-20.47638 16.84439,-42.00007 29.56659,-50.5 1.23481,-0.825 3.20553,-2.21455 4.37937,-3.08788 1.17385,-0.87333 4.83427,-2.89308 8.13427,-4.48833 5.74172,-2.7756 6.60445,-2.90096 20.04159,-2.91212 l 14.04159,-0.0117 8.79084,4.43642 c 8.60738,4.34384 14.42733,8.6494 19.56159,14.47156 1.41041,1.59938 3.57689,4.02759 4.81439,5.39602 1.2375,1.36842 2.25,3.09734 2.25,3.84202 0,0.74469 0.37881,1.35398 0.84181,1.35398 1.57159,0 10.15527,18.45417 13.09795,28.15947 5.80062,19.13107 5.9943,50.23326 0.42868,68.84053 -6.85158,22.9066 -20.6617,41.97582 -35.6558,49.23407 -11.90221,5.76154 -11.93754,5.76962 -24.86377,5.68698 C 622.05699,715.87763 615.825,715.6123 615,715.33142 Z"
         id="path1897"
         inkscape:label="eyes" />
      <path
         style="display:none;fill:#0c8afd"
         d="M 160.5,1020.5667 C 124.42653,1010.6745 94.215564,994.07885 67.24422,969.33898 38.422401,942.90173 15.776214,904.2938 5.4933874,864.06421 -0.38731492,841.05708 0,865.8796 0,512 0,158.1204 -0.38731492,182.94292 5.4933874,159.93579 13.5623,128.36772 28.480193,99.028271 49.386994,73.608988 77.526629,39.395752 120.38304,13.177762 165.74177,2.4273816 L 175.98354,0 h 336.28332 336.28332 l 11.97491,2.9319396 c 54.1586,13.2602034 101.05177,46.5265214 130.04543,92.2550834 15.93198,25.127837 26.06388,50.467457 31.42188,78.585497 2.0368,10.68902 2.0431,11.91608 1.7624,342.22748 l -0.2817,331.5 -2.6593,10.5 c -7.458,29.44776 -16.9378,51.29062 -32.11614,74 -29.55112,44.21358 -74.01789,75.5006 -126.54458,89.0374 l -11.65308,3.0031 -27.93851,-0.2702 -27.93852,-0.2703 -3.3114,-13.5 c -1.82127,-7.425 -3.73728,-15.3 -4.25779,-17.5 -0.91335,-3.86036 -4.76907,-17.00663 -8.94545,-30.5 -1.10651,-3.575 -3.88526,-12.575 -6.17499,-20 l -4.16315,-13.5 -0.78922,-31 c -0.43407,-17.05 -0.83236,-52.22184 -0.88509,-78.15965 L 766,772.1807 l 7.25,-1.15847 c 11.56242,-1.84754 26.72606,-5.07101 33.521,-7.12584 3.44905,-1.04301 6.81535,-1.89639 7.48067,-1.89639 1.16771,0 7.36787,-2.24948 16.74833,-6.07647 2.475,-1.00973 15.075,-5.73922 28,-10.50997 12.925,-4.77075 25.32958,-9.51547 27.56572,-10.54383 2.23615,-1.02835 4.37856,-1.86973 4.7609,-1.86973 0.75326,0 6.17539,-2.36264 17.17338,-7.48314 3.85,-1.79251 8.59561,-3.99976 10.54579,-4.90502 C 924.8563,717.91466 929,713.53532 929,710.09155 c 0,-3.67709 -1.28291,-4.42238 -10.5,-6.09977 -8.79169,-1.59998 -37.67602,-9.79778 -38.95,-11.05459 -0.59355,-0.58554 0.271,-0.93719 2.30416,-0.93719 6.82507,0 31.1995,-7.59931 43.64584,-13.60764 16.4923,-7.96147 20.5,-10.99784 20.5,-15.53149 0,-3.23201 -1.30025,-4.08198 -9,-5.88323 -3.025,-0.70765 -6.175,-1.61375 -7,-2.01354 -0.825,-0.39979 -6.225,-2.15897 -12,-3.90931 -5.775,-1.75033 -11.28139,-3.6037 -12.23643,-4.1186 C 904.80853,646.42128 903.42362,646 902.68598,646 c -3.3817,0 -24.67281,-9.45812 -36.53872,-16.23155 -2.00599,-1.14508 -4.54726,-2.57476 -5.64726,-3.17706 -1.1,-0.60231 -5.6,-3.54171 -10,-6.53201 -4.4,-2.99029 -10.02729,-6.81446 -12.50508,-8.49814 -2.4778,-1.68368 -8.46382,-5.97439 -13.30228,-9.5349 -7.75203,-5.70455 -8.72513,-6.76076 -8.19067,-8.89022 0.99589,-3.96795 2.53817,-21.71817 3.13978,-36.13612 0.86382,-20.70193 -2.39332,-61.70909 -6.79113,-85.5 -1.94531,-10.52351 -3.00269,-14.59151 -7.73826,-29.771 -1.86362,-5.97369 -2.11268,-9.2119 -2.1151,-27.5 -0.002,-11.40095 -0.44204,-30.179 -0.97895,-41.729 -0.53691,-11.55 -1.46623,-48.225 -2.06516,-81.5 -1.35522,-75.29375 -3.16284,-124.8187 -4.65403,-127.51119 -1.95609,-3.53188 -5.03596,-5.64383 -9.00727,-6.17649 -5.34577,-0.71702 -10.28636,1.599 -13.40918,6.28587 C 764.79401,175.73806 749,200.87402 749,201.60716 c 0,0.27642 -1.6875,3.07607 -3.75,6.22144 -5.38916,8.21865 -16.25,26.82433 -16.25,27.83786 0,0.2156 -2.41742,5.44134 -5.37204,11.61277 -4.86294,10.15741 -8.04744,17.0076 -13.70031,29.47077 -6.17408,13.61232 -9.07774,20.20364 -14.42733,32.75 -2.57963,6.05 -5.59065,13.025 -6.69115,15.5 -1.1005,2.475 -2.77349,6.3 -3.71775,8.5 -2.4894,5.79993 -5.17771,11.60314 -11.03921,23.83019 -4.22938,8.82246 -5.50334,10.69984 -6.87204,10.12699 -3.95807,-1.65657 -5.50543,-2.11823 -26.68017,-7.96005 -3.3,-0.91043 -9.6,-2.30658 -14,-3.10257 -4.4,-0.79598 -9.35,-1.85061 -11,-2.34361 -1.65,-0.493 -6.15,-1.18367 -10,-1.53482 -3.85,-0.35114 -7.73868,-0.85076 -8.64152,-1.11025 -1.37629,-0.39556 -1.82811,0.94733 -2.7963,8.31116 -0.63513,4.83063 -1.61682,11.70796 -2.18153,15.28296 -0.56471,3.575 -1.87254,12.575 -2.90629,20 -1.03375,7.425 -2.36093,16.2 -2.94929,19.5 -0.58836,3.3 -1.48756,9.825 -1.99821,14.5 -0.51065,4.675 -1.4028,11.875 -1.98255,16 -0.57976,4.125 -1.49634,13.30577 -2.03686,20.40171 -0.54051,7.09595 -1.74632,18.00974 -2.67957,24.25288 -1.68413,11.26634 -1.70621,11.32312 -2.95436,7.59828 -1.17065,-3.49352 -5.00767,-23.31691 -6.04932,-31.25287 -0.25267,-1.925 -1.1313,-8.225 -1.95251,-14 -0.82121,-5.775 -1.92763,-14.775 -2.45872,-20 -0.53108,-5.225 -1.38878,-11.975 -1.90599,-15 -1.40981,-8.24558 -2.77203,-17.51383 -3.96838,-27 -0.58959,-4.675 -1.47781,-10.975 -1.97383,-14 -0.49602,-3.025 -1.20681,-10.3375 -1.57954,-16.25 L 553.80754,349 h -28.75289 c -15.81409,0 -32.18766,0.29034 -36.3857,0.64521 -7.6102,0.6433 -7.63408,0.6544 -8.06406,3.75 -0.23719,1.70763 -0.91951,6.47979 -1.51626,10.60479 -0.59675,4.125 -1.50904,12.45788 -2.02731,18.51752 -1.58758,18.56222 -6.00128,40.28446 -11.07018,54.48248 -7.67987,21.51132 -9.89935,27.55958 -11.74279,32 -2.56682,6.18286 -7.58153,16.4843 -8.27556,17 -0.3701,0.275 -0.90379,1.175 -1.18598,2 -0.28219,0.825 -0.79876,-21.9 -1.14793,-50.5 -0.34918,-28.6 -0.90759,-59.29747 -1.24092,-68.21661 l -0.60606,-16.21661 -4.64595,0.55768 c -2.55527,0.30673 -5.99595,0.94251 -7.64595,1.41285 -1.65,0.47034 -5.25,1.14641 -8,1.50236 -4.76027,0.61617 -9.49475,1.79518 -26.5,6.59918 -9.31237,2.63075 -17.39483,5.71356 -33.2881,12.69674 -6.19304,2.7211 -35.98984,17.98465 -43.2119,22.1355 -11.44013,6.57518 -13.5,7.04781 -13.5,3.09754 0,-0.99734 -1.13299,-5.35828 -2.51776,-9.69099 -1.38476,-4.3327 -3.69439,-11.70264 -5.13251,-16.37764 -1.43811,-4.675 -3.40655,-10.975 -4.37432,-14 -0.96776,-3.025 -2.7818,-8.875 -4.03119,-13 -3.12793,-10.32724 -8.87676,-26.36414 -12.09461,-33.7391 C 275.83232,311.92939 275,309.75235 275,309.42302 275,308.58121 266.28123,286.38333 263.93863,281.2609 262.87239,278.92939 262,276.78699 262,276.5 c 0,-0.28699 -0.87135,-2.42939 -1.93634,-4.7609 -1.06499,-2.3315 -3.10789,-7.08055 -4.53976,-10.55343 -8.0543,-19.53493 -17.41987,-35.89575 -25.49289,-44.53383 C 224.25555,210.47214 221.3435,209 214.89482,209 c -4.73156,0 -5.53521,0.34765 -8.84387,3.82578 -5.36291,5.63759 -6.60817,11.43136 -11.53624,53.67422 -1.41159,12.1 -4.57201,37.075 -7.02315,55.5 -6.49227,48.80178 -8.46112,70.60542 -10.06833,111.5 -0.36746,9.35 -1.01074,17.45 -1.42949,18 -1.28924,1.6933 -1.03681,17.62005 0.55019,34.71299 0.8317,8.95785 1.92182,22.13701 2.42249,29.28701 0.50067,7.15 1.48508,19.075 2.18758,26.5 0.70249,7.425 1.16196,16.81715 1.02105,20.87144 -0.29599,8.5162 3.55935,33.02013 7.80835,49.62856 1.55398,6.07422 3.33169,16.82137 3.96988,24 0.63565,7.15 2.14288,18.85 3.3494,26 2.87008,17.00838 2.93093,25.24748 0.19732,26.71864 -1.1,0.592 -10.55,9.55234 -21,19.91187 -27.26976,27.03369 -31.37943,30.4842 -44.83986,37.64798 -3.38808,1.80317 -6.72264,4.02668 -7.41014,4.94113 -1.81712,2.41698 -1.53219,5.71503 0.66558,7.70398 4.99823,4.52334 28.21094,8.5764 49.1188,8.5764 7.97708,0 12.96562,0.38475 12.96562,1 0,0.55 -0.52707,1 -1.17126,1 -0.64419,0 -1.88169,0.62008 -2.75,1.37795 -2.01628,1.75985 -12.39631,7.3879 -27.28272,14.79268 -11.07531,5.50907 -11.73948,6.01107 -12.36507,9.34575 -0.51953,2.76932 -0.15462,4.28133 1.70397,7.06053 3.7676,5.63377 10.71951,8.51744 38.36508,15.91391 2.75,0.73575 11.075,2.32993 18.5,3.54262 11.81988,1.93049 18.34095,2.25689 52.39759,2.62267 l 38.89759,0.41778 2.60241,4.25806 c 1.43133,2.34193 3.66269,6.48781 4.9586,9.21305 1.2959,2.72525 2.95142,6.09529 3.67893,7.48899 2.268,4.34481 12.09798,30.91611 15.89515,42.96601 4.69971,14.91401 6.83778,21.80807 9.61408,31 1.24591,4.125 2.78734,9.075 3.42541,11 0.72735,2.19437 0.87264,5.17867 0.38946,8 -0.42387,2.475 -1.47598,10.35 -2.33802,17.5 -0.86204,7.15 -1.97674,15.025 -2.4771,17.5 -0.50036,2.475 -2.31664,14.09519 -4.03618,25.82264 -1.71954,11.72746 -0.34747,2.92136 -3.67417,22.74996 -0.21616,1.2884 -11.33886,1.417 -74.69074,1.3561 l -74.14301,-0.071 -12,-3.2907 z"
         id="path1895"
         sodipodi:nodetypes="csssssscccsssscssscccsssscsscssssssssssssssssssssssssssssscsssssssssssssssssssssssssssssssssssscssssssssssscsssssssssssssssssssssssssssssssssssssssssssssscssssssssssscccc"
         inkscape:label="bg" />
    </g>
    <path
       style="display:inline;fill:#ffffff;stroke:#ffffff;stroke-width:2;stroke-linecap:round;stroke-dasharray:none;stroke-opacity:1"
       d="m 321.33375,1022.5726 c -0.21167,-0.3425 5.0842,-29.27511 6.2038,-36.30978 1.1196,-7.03466 3.22968,-21.6328 4.68907,-32.44032 l 2.65344,-19.65002 -7.68546,-24.82545 c -4.22701,-13.65399 -10.30769,-32.12026 -13.51262,-41.03614 -6.12901,-17.0504 -16.21806,-38.87949 -19.47457,-42.136 l -1.92381,-1.92381 -29.34173,-0.0272 c -44.56649,-0.0414 -60.73882,-1.43116 -82.54602,-7.09364 -21.98297,-5.70811 -31.99253,-10.0995 -35.36501,-15.51532 -1.92665,-3.09396 -1.64538,-6.8562 0.67772,-9.06531 0.78903,-0.75032 9.06903,-5.35083 18.4,-10.22336 9.33097,-4.87253 17.99286,-9.59076 19.24863,-10.48495 1.25577,-0.89419 2.69309,-1.6258 3.19404,-1.6258 1.37803,0 1.09039,-1.41584 -0.40415,-1.98935 -0.72323,-0.27753 -5.11882,-0.50588 -9.76798,-0.50744 -17.22823,-0.006 -39.17393,-3.06805 -47.46896,-6.62371 -4.48966,-1.92449 -6.2221,-4.75528 -4.8087,-7.85736 0.52248,-1.14671 3.53363,-3.50843 6.99181,-5.48386 14.90759,-8.51569 18.0158,-11.18127 54.65183,-46.86914 l 13.66241,-13.30881 0.34941,-4.2134 c 0.19217,-2.31736 -0.79418,-12.43506 -2.19189,-22.48376 -1.39771,-10.0487 -3.11953,-22.94653 -3.82626,-28.66183 -0.70674,-5.71531 -2.43087,-15.44172 -3.8314,-21.61425 -4.69276,-20.68233 -6.6469,-34.40818 -7.4507,-52.33341 -0.41933,-9.35134 -0.96718,-18.51661 -1.21746,-20.36728 -0.25027,-1.85067 -1.59251,-17.71553 -2.98274,-35.25527 -2.62446,-33.11103 -2.70562,-38.9353 -0.91093,-65.37369 0.52763,-7.77282 1.35599,-21.24016 1.84079,-29.92743 1.51383,-27.12687 2.92399,-40.2076 12.07619,-112.02 l 4.84713,-38.03276 c 3.75436,-19.02401 0.0864,-46.7108 18.78519,-48.29275 15.61203,-1.19894 26.82247,24.39272 38.31083,48.29275 l 2.53799,5.61139 c 5.70361,12.61042 19.34863,47.00164 26.63398,67.12887 4.38003,12.1007 21.36805,66.48087 22.00943,70.45414 0.42617,2.64008 0.82253,3.11744 2.58848,3.11744 1.14689,0 7.60952,-2.98847 14.36138,-6.64102 19.39523,-10.49224 44.98601,-22.89542 56.4064,-27.33871 13.84379,-5.38615 34.00773,-10.95987 50.15749,-13.86456 7.19041,-1.29327 13.24503,-2.17983 13.45472,-1.97016 0.20967,0.20969 0.78868,25.25162 1.28666,55.64875 0.49798,30.39714 1.12622,60.67469 1.39607,67.28347 0.44591,10.92037 0.6048,11.86784 1.74269,10.39146 3.87884,-5.03269 14.76907,-32.078 22.0777,-54.82879 3.57248,-11.12064 6.76683,-26.39076 8.43428,-40.31889 0.68423,-5.7153 2.02801,-16.93809 2.98618,-24.93951 1.16412,-9.72138 2.14818,-14.96177 2.96601,-15.79503 1.04035,-1.05996 6.44688,-1.28867 36.04876,-1.52493 l 34.82487,-0.27795 0.42782,3.60322 c 0.23531,1.98177 0.82354,8.15791 1.30718,13.72474 0.48366,5.56684 2.20132,19.22123 3.81705,30.34308 1.61573,11.12186 3.86342,27.70342 4.99487,36.84791 5.08834,41.12446 9.97106,67.66822 12.05656,65.54276 0.93104,-0.94888 2.87197,-15.37773 4.90271,-36.44666 2.02893,-21.05022 10.88842,-86.62861 14.63893,-108.35817 l 0.47999,-2.78088 5.97453,0.56921 c 9.91101,0.94426 34.10713,6.13671 50.74906,10.89067 8.62313,2.4633 16.06443,4.24015 16.53622,3.94856 1.19754,-0.74011 12.42481,-24.22921 20.60057,-43.09937 9.66474,-22.30685 21.61041,-49.29097 26.03727,-58.8157 l 3.76717,-8.10534 c 16.69382,-39.21065 49.27528,-104.43456 66.88318,-99.98043 17.62417,-2.03152 13.62063,63.1525 12.11305,99.98043 l 0.41566,2.70178 c 0.22862,1.48598 0.63353,17.10435 0.8998,34.70749 0.26628,17.60315 0.86797,43.78964 1.3371,58.19221 0.46913,14.40257 1.15515,39.27974 1.52448,55.2826 l 0.67153,29.09611 3.38464,11.22278 c 5.41521,17.95576 8.21951,34.41854 11.11623,65.2584 1.57516,16.76998 1.3315,56.04214 -0.43539,70.17363 -1.32419,10.59088 -1.32083,11.23157 0.0673,12.77446 1.64028,1.82324 22.44414,16.82266 33.88271,24.42914 19.013,12.64339 35.37344,20.19737 63.18011,29.17169 11.43062,3.68911 22.92911,7.31047 25.55221,8.04746 3.84848,1.08127 4.86931,1.73852 5.28738,3.40424 1.08889,4.3385 -4.653,9.03252 -19.58996,16.01488 -9.40257,4.39528 -29.82748,11.31089 -37.43612,12.67538 -2.97196,0.53297 -6.24527,1.12414 -7.27403,1.3137 -1.02875,0.18956 -1.87046,0.6567 -1.87046,1.0381 0,1.14526 24.29858,8.35373 38.24059,11.34453 9.79606,2.10143 10.80713,2.6456 10.80713,5.81661 0,4.37833 -3.62311,7.35299 -16.37162,13.44152 -13.03503,6.22537 -26.52278,11.67595 -59.27825,23.95514 -12.57368,4.71355 -25.66692,9.67762 -29.09611,11.03127 -7.98895,3.15361 -30.27159,8.71317 -45.6429,11.38799 -6.58601,1.14606 -12.06977,2.18188 -12.18615,2.30184 -0.45332,0.46728 1.28189,150.8465 1.78158,154.39726 0.29189,2.07411 4.09298,15.36799 8.44687,29.54195 4.35388,14.17396 9.93838,34.3169 12.71229,44.68329 l 5.98138,22.3531 c -163.13762,3.4938 -331.41553,0.5544 -473.17915,-0.4787 z m 99.96348,-287.86937 c 9.49827,-4.49171 17.79153,-10.79845 23.50457,-17.87443 9.14176,-11.32268 16.43489,-27.0601 19.17818,-41.38352 1.67151,-8.72734 2.43778,-36.87731 1.24453,-45.71874 -4.34366,-32.18415 -23.38814,-62.36328 -46.49457,-73.6783 -7.02954,-3.4423 -8.67466,-3.9007 -16.84483,-4.69362 -16.68873,-1.61965 -26.97051,0.79206 -38.1838,8.95645 -10.75894,7.83357 -16.36969,14.34553 -22.20158,25.76761 -7.51945,14.72726 -10.21792,24.22486 -11.92781,41.98152 -4.68463,48.64819 17.93867,94.27933 53.41857,107.74514 4.85905,1.84416 6.21895,1.97157 18.95141,1.77555 13.51249,-0.20803 13.8007,-0.25089 19.35533,-2.87766 z m 230.4485,-22.99927 c 7.22358,-3.52942 9.2822,-5.05037 15.79502,-11.66964 18.85072,-19.15883 27.22855,-44.45349 25.90356,-78.209 -0.6084,-15.49961 -2.50847,-26.05771 -6.59255,-36.63273 -9.72924,-25.1922 -20.18794,-37.53848 -40.40695,-47.69956 l -6.97057,-3.50306 -14.64368,0.28085 -14.64368,0.28086 -6.23488,3.1938 c -14.33328,7.3422 -24.32625,17.66309 -32.11234,33.16613 -8.23141,16.3897 -11.45104,31.21631 -11.41708,52.57634 0.0191,12.03808 0.34933,15.6909 2.22808,24.64914 4.47468,21.33604 12.09888,37.12616 23.75847,49.20504 6.9558,7.20596 14.40738,12.53023 22.45049,16.04124 l 6.31516,2.75671 14.1324,-0.18888 14.13239,-0.18888 z"
       id="path2064"
       inkscape:label="body"
       sodipodi:nodetypes="csscssscsssssssscsssscsssssssssscccsssssssssssssssscssssssscssssscccsssscssssssssssssssssssssssccssssssssssssssssscccsssssscccs" />
  </g>
</svg>
